<svg xmlns="http://www.w3.org/2000/svg" xmlns:xlink="http://www.w3.org/1999/xlink" width="500" zoomAndPan="magnify" viewBox="0 0 375 374.999991" height="500" preserveAspectRatio="xMidYMid meet" version="1.0"><defs><g/><clipPath id="0eda078de9"><path d="M 30 150 L 123 150 L 123 241 L 30 241 Z M 30 150 " clip-rule="nonzero"/></clipPath><clipPath id="88386ae50b"><path d="M 0 189.824219 L 83.34375 118.804688 L 139.773438 185.019531 L 56.429688 256.042969 Z M 0 189.824219 " clip-rule="nonzero"/></clipPath><clipPath id="9402584499"><path d="M 0 189.824219 L 83.34375 118.804688 L 139.773438 185.019531 L 56.429688 256.042969 Z M 0 189.824219 " clip-rule="nonzero"/></clipPath><clipPath id="989431e91b"><path d="M 27 211 L 51 211 L 51 238 L 27 238 Z M 27 211 " clip-rule="nonzero"/></clipPath><clipPath id="b6c22f3296"><path d="M 0 189.824219 L 83.34375 118.804688 L 139.773438 185.019531 L 56.429688 256.042969 Z M 0 189.824219 " clip-rule="nonzero"/></clipPath><clipPath id="7c74421e88"><path d="M 0 189.824219 L 83.34375 118.804688 L 139.773438 185.019531 L 56.429688 256.042969 Z M 0 189.824219 " clip-rule="nonzero"/></clipPath><clipPath id="54e2d737e9"><path d="M 99 150 L 124 150 L 124 176 L 99 176 Z M 99 150 " clip-rule="nonzero"/></clipPath><clipPath id="2f635b9f44"><path d="M 0 189.824219 L 83.34375 118.804688 L 139.773438 185.019531 L 56.429688 256.042969 Z M 0 189.824219 " clip-rule="nonzero"/></clipPath><clipPath id="4a8204fdf8"><path d="M 0 189.824219 L 83.34375 118.804688 L 139.773438 185.019531 L 56.429688 256.042969 Z M 0 189.824219 " clip-rule="nonzero"/></clipPath></defs><g fill="#e6e6e6" fill-opacity="1"><g transform="translate(135.547633, 213.023165)"><g><path d="M 22.78125 1.015625 C 18.695312 1.015625 14.734375 0.507812 10.890625 -0.5 C 7.046875 -1.507812 3.921875 -2.859375 1.515625 -4.546875 L 6.203125 -15.078125 C 8.460938 -13.578125 11.082031 -12.367188 14.0625 -11.453125 C 17.039062 -10.546875 19.972656 -10.09375 22.859375 -10.09375 C 28.335938 -10.09375 31.078125 -11.460938 31.078125 -14.203125 C 31.078125 -15.648438 30.296875 -16.71875 28.734375 -17.40625 C 27.171875 -18.101562 24.660156 -18.835938 21.203125 -19.609375 C 17.398438 -20.429688 14.222656 -21.3125 11.671875 -22.25 C 9.128906 -23.1875 6.941406 -24.6875 5.109375 -26.75 C 3.285156 -28.820312 2.375 -31.613281 2.375 -35.125 C 2.375 -38.195312 3.210938 -40.96875 4.890625 -43.4375 C 6.578125 -45.914062 9.09375 -47.875 12.4375 -49.3125 C 15.78125 -50.757812 19.878906 -51.484375 24.734375 -51.484375 C 28.046875 -51.484375 31.3125 -51.109375 34.53125 -50.359375 C 37.757812 -49.617188 40.597656 -48.53125 43.046875 -47.09375 L 38.65625 -36.484375 C 33.84375 -39.078125 29.175781 -40.375 24.65625 -40.375 C 21.820312 -40.375 19.753906 -39.953125 18.453125 -39.109375 C 17.160156 -38.273438 16.515625 -37.1875 16.515625 -35.84375 C 16.515625 -34.488281 17.28125 -33.472656 18.8125 -32.796875 C 20.351562 -32.128906 22.832031 -31.4375 26.25 -30.71875 C 30.09375 -29.90625 33.273438 -29.03125 35.796875 -28.09375 C 38.328125 -27.15625 40.515625 -25.660156 42.359375 -23.609375 C 44.210938 -21.566406 45.140625 -18.789062 45.140625 -15.28125 C 45.140625 -12.257812 44.296875 -9.519531 42.609375 -7.0625 C 40.929688 -4.613281 38.410156 -2.65625 35.046875 -1.1875 C 31.679688 0.28125 27.59375 1.015625 22.78125 1.015625 Z M 22.78125 1.015625 "/></g></g></g><g fill="#e6e6e6" fill-opacity="1"><g transform="translate(176.28092, 213.023165)"><g><path d="M 55.3125 -39.734375 C 60.113281 -39.734375 63.941406 -38.289062 66.796875 -35.40625 C 69.660156 -32.519531 71.09375 -28.171875 71.09375 -22.359375 L 71.09375 0 L 57.40625 0 L 57.40625 -20.125 C 57.40625 -22.863281 56.882812 -24.878906 55.84375 -26.171875 C 54.8125 -27.472656 53.359375 -28.125 51.484375 -28.125 C 49.421875 -28.125 47.765625 -27.398438 46.515625 -25.953125 C 45.265625 -24.515625 44.640625 -22.328125 44.640625 -19.390625 L 44.640625 0 L 30.9375 0 L 30.9375 -20.125 C 30.9375 -25.457031 28.960938 -28.125 25.015625 -28.125 C 22.898438 -28.125 21.21875 -27.398438 19.96875 -25.953125 C 18.71875 -24.515625 18.09375 -22.328125 18.09375 -19.390625 L 18.09375 0 L 4.40625 0 L 4.40625 -39.078125 L 17.453125 -39.078125 L 17.453125 -34.96875 C 18.890625 -36.5625 20.601562 -37.753906 22.59375 -38.546875 C 24.59375 -39.335938 26.769531 -39.734375 29.125 -39.734375 C 31.875 -39.734375 34.328125 -39.226562 36.484375 -38.21875 C 38.648438 -37.207031 40.40625 -35.671875 41.75 -33.609375 C 43.289062 -35.578125 45.238281 -37.085938 47.59375 -38.140625 C 49.945312 -39.203125 52.519531 -39.734375 55.3125 -39.734375 Z M 55.3125 -39.734375 "/></g></g></g><g fill="#e6e6e6" fill-opacity="1"><g transform="translate(245.708236, 213.023165)"><g><path d="M 21.0625 -39.734375 C 27.550781 -39.734375 32.5 -38.253906 35.90625 -35.296875 C 39.320312 -32.335938 41.03125 -27.804688 41.03125 -21.703125 L 41.03125 0 L 28.265625 0 L 28.265625 -5.046875 C 26.296875 -1.242188 22.453125 0.65625 16.734375 0.65625 C 13.703125 0.65625 11.078125 0.125 8.859375 -0.9375 C 6.648438 -2 4.976562 -3.429688 3.84375 -5.234375 C 2.71875 -7.035156 2.15625 -9.085938 2.15625 -11.390625 C 2.15625 -15.097656 3.570312 -17.972656 6.40625 -20.015625 C 9.25 -22.054688 13.628906 -23.078125 19.546875 -23.078125 L 27.328125 -23.078125 C 27.085938 -27.210938 24.320312 -29.28125 19.03125 -29.28125 C 17.15625 -29.28125 15.253906 -28.976562 13.328125 -28.375 C 11.410156 -27.769531 9.78125 -26.941406 8.4375 -25.890625 L 3.828125 -35.1875 C 5.984375 -36.632812 8.613281 -37.753906 11.71875 -38.546875 C 14.820312 -39.335938 17.9375 -39.734375 21.0625 -39.734375 Z M 20.546875 -8 C 22.140625 -8 23.535156 -8.382812 24.734375 -9.15625 C 25.929688 -9.925781 26.796875 -11.054688 27.328125 -12.546875 L 27.328125 -15.9375 L 21.421875 -15.9375 C 17.429688 -15.9375 15.4375 -14.613281 15.4375 -11.96875 C 15.4375 -10.769531 15.890625 -9.804688 16.796875 -9.078125 C 17.710938 -8.359375 18.960938 -8 20.546875 -8 Z M 20.546875 -8 "/></g></g></g><g fill="#e6e6e6" fill-opacity="1"><g transform="translate(285.071711, 213.023165)"><g><path d="M 17.453125 -34.390625 C 18.847656 -36.171875 20.660156 -37.503906 22.890625 -38.390625 C 25.128906 -39.285156 27.691406 -39.734375 30.578125 -39.734375 L 30.578125 -27.40625 C 29.328125 -27.550781 28.289062 -27.625 27.46875 -27.625 C 24.539062 -27.625 22.242188 -26.828125 20.578125 -25.234375 C 18.921875 -23.648438 18.09375 -21.222656 18.09375 -17.953125 L 18.09375 0 L 4.40625 0 L 4.40625 -39.078125 L 17.453125 -39.078125 Z M 17.453125 -34.390625 "/></g></g></g><g fill="#e6e6e6" fill-opacity="1"><g transform="translate(311.097513, 213.023165)"><g><path d="M 31.375 -1.59375 C 30.21875 -0.863281 28.804688 -0.304688 27.140625 0.078125 C 25.484375 0.460938 23.71875 0.65625 21.84375 0.65625 C 16.75 0.65625 12.832031 -0.59375 10.09375 -3.09375 C 7.351562 -5.59375 5.984375 -9.320312 5.984375 -14.28125 L 5.984375 -27.40625 L 0.28125 -27.40625 L 0.28125 -37.640625 L 5.984375 -37.640625 L 5.984375 -47.8125 L 19.6875 -47.8125 L 19.6875 -37.640625 L 28.625 -37.640625 L 28.625 -27.40625 L 19.6875 -27.40625 L 19.6875 -14.421875 C 19.6875 -13.023438 20.054688 -11.929688 20.796875 -11.140625 C 21.546875 -10.347656 22.546875 -9.953125 23.796875 -9.953125 C 25.378906 -9.953125 26.773438 -10.359375 27.984375 -11.171875 Z M 31.375 -1.59375 "/></g></g></g><g clip-path="url(#0eda078de9)"><g clip-path="url(#88386ae50b)"><g clip-path="url(#9402584499)"><path fill="#f8f442" d="M 115.773438 205.664062 L 80.535156 235.691406 C 72.777344 242.304688 61.117188 241.375 54.542969 233.664062 L 35.082031 210.824219 C 28.46875 203.0625 29.398438 191.402344 37.160156 184.789062 L 53.265625 171.066406 L 48.738281 165.65625 C 46.097656 166.808594 42.875 166.1875 40.878906 163.847656 C 38.464844 161.015625 38.851562 156.726562 41.683594 154.3125 C 44.515625 151.902344 48.8125 152.199219 51.222656 155.03125 C 53.21875 157.371094 53.3125 160.746094 51.707031 163.210938 L 56.191406 168.570312 L 72.394531 154.765625 C 80.105469 148.191406 91.765625 149.125 98.378906 156.882812 L 117.882812 179.773438 C 124.453125 187.484375 123.484375 199.09375 115.773438 205.664062 Z M 66.046875 209.792969 C 61.898438 213.328125 55.84375 212.84375 52.347656 208.746094 C 48.8125 204.597656 49.296875 198.539062 53.445312 195.003906 C 57.59375 191.46875 63.601562 191.996094 67.136719 196.144531 C 70.628906 200.242188 70.195312 206.257812 66.046875 209.792969 Z M 55.941406 197.933594 C 53.402344 200.097656 53.113281 203.710938 55.277344 206.25 C 57.398438 208.738281 61.011719 209.027344 63.550781 206.863281 C 66.039062 204.742188 66.378906 201.085938 64.257812 198.597656 C 62.09375 196.058594 58.429688 195.8125 55.941406 197.933594 Z M 92.296875 186.917969 C 88.148438 190.453125 82.003906 189.960938 78.507812 185.863281 C 75.015625 181.761719 75.507812 175.617188 79.65625 172.082031 C 83.707031 168.628906 89.851562 169.121094 93.34375 173.21875 C 96.839844 177.320312 96.347656 183.464844 92.296875 186.917969 Z M 82.148438 175.007812 C 79.613281 177.171875 79.359375 180.925781 81.4375 183.367188 C 83.558594 185.855469 87.304688 186.199219 89.84375 184.039062 C 92.332031 181.917969 92.539062 178.203125 90.417969 175.714844 C 88.253906 173.175781 84.589844 172.929688 82.148438 175.007812 Z M 86.054688 207.570312 C 83.273438 209.941406 79.710938 210.703125 77.34375 210.695312 C 76.253906 210.699219 75.375 209.765625 75.453125 208.769531 C 75.492188 207.726562 76.285156 206.878906 77.417969 206.925781 C 78.191406 206.941406 85.304688 206.691406 86.195312 199.53125 C 86.324219 198.496094 87.203125 197.746094 88.335938 197.789062 C 89.414062 197.96875 90.164062 198.847656 90.078125 199.929688 C 89.523438 203.433594 88.007812 205.90625 86.054688 207.570312 Z M 86.054688 207.570312 " fill-opacity="1" fill-rule="evenodd"/></g></g></g><g clip-path="url(#989431e91b)"><g clip-path="url(#b6c22f3296)"><g clip-path="url(#7c74421e88)"><path fill="#f8f442" d="M 50.203125 234.5 L 49.617188 235 C 46.101562 237.992188 40.71875 237.609375 37.683594 234.046875 L 29.199219 224.089844 C 26.164062 220.527344 26.597656 215.105469 30.109375 212.109375 L 30.792969 211.527344 C 31.203125 212.105469 31.652344 212.734375 32.152344 213.320312 Z M 50.203125 234.5 " fill-opacity="1" fill-rule="evenodd"/></g></g></g><g clip-path="url(#54e2d737e9)"><g clip-path="url(#2f635b9f44)"><g clip-path="url(#4a8204fdf8)"><path fill="#f8f442" d="M 119.941406 175.070312 L 119.355469 175.570312 L 101.308594 154.386719 C 100.765625 153.753906 100.21875 153.210938 99.710938 152.714844 L 100.394531 152.132812 C 104.007812 149.054688 109.390625 149.4375 112.464844 153.050781 L 120.992188 163.054688 C 124.070312 166.667969 123.554688 171.992188 119.941406 175.070312 Z M 119.941406 175.070312 " fill-opacity="1" fill-rule="evenodd"/></g></g></g><g fill="#e6e6e6" fill-opacity="1"><g transform="translate(137.124389, 236.065448)"><g><path d="M 5.25 0.203125 C 4.320312 0.203125 3.425781 0.078125 2.5625 -0.171875 C 1.695312 -0.421875 1 -0.75 0.46875 -1.15625 L 1.390625 -3.203125 C 1.898438 -2.835938 2.5 -2.539062 3.1875 -2.3125 C 3.882812 -2.09375 4.582031 -1.984375 5.28125 -1.984375 C 6.050781 -1.984375 6.617188 -2.097656 6.984375 -2.328125 C 7.359375 -2.554688 7.546875 -2.859375 7.546875 -3.234375 C 7.546875 -3.515625 7.4375 -3.75 7.21875 -3.9375 C 7 -4.125 6.71875 -4.269531 6.375 -4.375 C 6.03125 -4.488281 5.566406 -4.613281 4.984375 -4.75 C 4.085938 -4.96875 3.351562 -5.179688 2.78125 -5.390625 C 2.21875 -5.597656 1.726562 -5.9375 1.3125 -6.40625 C 0.90625 -6.882812 0.703125 -7.515625 0.703125 -8.296875 C 0.703125 -8.984375 0.882812 -9.601562 1.25 -10.15625 C 1.625 -10.707031 2.179688 -11.144531 2.921875 -11.46875 C 3.671875 -11.789062 4.582031 -11.953125 5.65625 -11.953125 C 6.40625 -11.953125 7.140625 -11.863281 7.859375 -11.6875 C 8.578125 -11.507812 9.203125 -11.253906 9.734375 -10.921875 L 8.90625 -8.859375 C 7.8125 -9.472656 6.722656 -9.78125 5.640625 -9.78125 C 4.878906 -9.78125 4.316406 -9.65625 3.953125 -9.40625 C 3.585938 -9.15625 3.40625 -8.832031 3.40625 -8.4375 C 3.40625 -8.03125 3.613281 -7.726562 4.03125 -7.53125 C 4.457031 -7.332031 5.101562 -7.140625 5.96875 -6.953125 C 6.863281 -6.742188 7.59375 -6.53125 8.15625 -6.3125 C 8.726562 -6.101562 9.21875 -5.769531 9.625 -5.3125 C 10.039062 -4.851562 10.25 -4.226562 10.25 -3.4375 C 10.25 -2.769531 10.0625 -2.15625 9.6875 -1.59375 C 9.3125 -1.039062 8.75 -0.601562 8 -0.28125 C 7.25 0.0390625 6.332031 0.203125 5.25 0.203125 Z M 5.25 0.203125 "/></g></g></g><g fill="#e6e6e6" fill-opacity="1"><g transform="translate(161.2767, 236.065448)"><g><path d="M 10.5 -2.1875 L 10.5 0 L 1.390625 0 L 1.390625 -11.75 L 10.28125 -11.75 L 10.28125 -9.578125 L 4.09375 -9.578125 L 4.09375 -7.015625 L 9.5625 -7.015625 L 9.5625 -4.90625 L 4.09375 -4.90625 L 4.09375 -2.1875 Z M 10.5 -2.1875 "/></g></g></g><g fill="#e6e6e6" fill-opacity="1"><g transform="translate(185.982983, 236.065448)"><g><path d="M 12.171875 -11.75 L 12.171875 0 L 9.9375 0 L 4.078125 -7.140625 L 4.078125 0 L 1.390625 0 L 1.390625 -11.75 L 3.640625 -11.75 L 9.484375 -4.625 L 9.484375 -11.75 Z M 12.171875 -11.75 "/></g></g></g><g fill="#e6e6e6" fill-opacity="1"><g transform="translate(212.989079, 236.065448)"><g><path d="M 3.828125 -9.546875 L 0.0625 -9.546875 L 0.0625 -11.75 L 10.3125 -11.75 L 10.3125 -9.546875 L 6.546875 -9.546875 L 6.546875 0 L 3.828125 0 Z M 3.828125 -9.546875 "/></g></g></g><g fill="#e6e6e6" fill-opacity="1"><g transform="translate(236.805661, 236.065448)"><g><path d="M 1.390625 -11.75 L 4.109375 -11.75 L 4.109375 0 L 1.390625 0 Z M 1.390625 -11.75 "/></g></g></g><g fill="#e6e6e6" fill-opacity="1"><g transform="translate(255.754022, 236.065448)"><g><path d="M 12.171875 -11.75 L 12.171875 0 L 9.9375 0 L 4.078125 -7.140625 L 4.078125 0 L 1.390625 0 L 1.390625 -11.75 L 3.640625 -11.75 L 9.484375 -4.625 L 9.484375 -11.75 Z M 12.171875 -11.75 "/></g></g></g><g fill="#e6e6e6" fill-opacity="1"><g transform="translate(282.760124, 236.065448)"><g><path d="M 10.5 -2.1875 L 10.5 0 L 1.390625 0 L 1.390625 -11.75 L 10.28125 -11.75 L 10.28125 -9.578125 L 4.09375 -9.578125 L 4.09375 -7.015625 L 9.5625 -7.015625 L 9.5625 -4.90625 L 4.09375 -4.90625 L 4.09375 -2.1875 Z M 10.5 -2.1875 "/></g></g></g><g fill="#e6e6e6" fill-opacity="1"><g transform="translate(307.466411, 236.065448)"><g><path d="M 1.390625 -11.75 L 4.109375 -11.75 L 4.109375 -2.21875 L 10.015625 -2.21875 L 10.015625 0 L 1.390625 0 Z M 1.390625 -11.75 "/></g></g></g><g fill="#e6e6e6" fill-opacity="1"><g transform="translate(331.04797, 236.065448)"><g><path d="M 5.25 0.203125 C 4.320312 0.203125 3.425781 0.078125 2.5625 -0.171875 C 1.695312 -0.421875 1 -0.75 0.46875 -1.15625 L 1.390625 -3.203125 C 1.898438 -2.835938 2.5 -2.539062 3.1875 -2.3125 C 3.882812 -2.09375 4.582031 -1.984375 5.28125 -1.984375 C 6.050781 -1.984375 6.617188 -2.097656 6.984375 -2.328125 C 7.359375 -2.554688 7.546875 -2.859375 7.546875 -3.234375 C 7.546875 -3.515625 7.4375 -3.75 7.21875 -3.9375 C 7 -4.125 6.71875 -4.269531 6.375 -4.375 C 6.03125 -4.488281 5.566406 -4.613281 4.984375 -4.75 C 4.085938 -4.96875 3.351562 -5.179688 2.78125 -5.390625 C 2.21875 -5.597656 1.726562 -5.9375 1.3125 -6.40625 C 0.90625 -6.882812 0.703125 -7.515625 0.703125 -8.296875 C 0.703125 -8.984375 0.882812 -9.601562 1.25 -10.15625 C 1.625 -10.707031 2.179688 -11.144531 2.921875 -11.46875 C 3.671875 -11.789062 4.582031 -11.953125 5.65625 -11.953125 C 6.40625 -11.953125 7.140625 -11.863281 7.859375 -11.6875 C 8.578125 -11.507812 9.203125 -11.253906 9.734375 -10.921875 L 8.90625 -8.859375 C 7.8125 -9.472656 6.722656 -9.78125 5.640625 -9.78125 C 4.878906 -9.78125 4.316406 -9.65625 3.953125 -9.40625 C 3.585938 -9.15625 3.40625 -8.832031 3.40625 -8.4375 C 3.40625 -8.03125 3.613281 -7.726562 4.03125 -7.53125 C 4.457031 -7.332031 5.101562 -7.140625 5.96875 -6.953125 C 6.863281 -6.742188 7.59375 -6.53125 8.15625 -6.3125 C 8.726562 -6.101562 9.21875 -5.769531 9.625 -5.3125 C 10.039062 -4.851562 10.25 -4.226562 10.25 -3.4375 C 10.25 -2.769531 10.0625 -2.15625 9.6875 -1.59375 C 9.3125 -1.039062 8.75 -0.601562 8 -0.28125 C 7.25 0.0390625 6.332031 0.203125 5.25 0.203125 Z M 5.25 0.203125 "/></g></g></g></svg>